<svg xmlns="http://www.w3.org/2000/svg" 
     xmlns:xlink="http://www.w3.org/1999/xlink" 
     viewBox="0 0 280 280">
    <defs>
        <clipPath id="clipper">
            <circle cx="140" cy="140" r="115"/>
        </clipPath>
        
        <path d="M 0 0
                 l 24.3 17.6
                 l -9.27 28.5
                 l -30 0
                 l -9.27 -28.5
                 l 24.3 -17.6
                 l 24.3 17.6" 
              id="pentagon"
              fill="black" 
              stroke="black" 
              stroke-width="0"
              transform="scale(1.158)"/>
    </defs>
    
    <g clip-path="url(#clipper)">
        <circle cx="140" cy="140" r="110" fill="none" stroke="black" stroke-width="10"/>
        
        <use xlink:href="#pentagon" transform="translate(140,110.4) rotate(0)" />
        <use xlink:href="#pentagon" transform="translate(140.1,77.16) rotate(180)" />
        <use xlink:href="#pentagon" transform="translate(78.86,120.1) rotate(108)" />
        <use xlink:href="#pentagon" transform="translate(201.14,120.1) rotate(-108)" />
        <use xlink:href="#pentagon" transform="translate(101,193.42) rotate(36)" />
        <use xlink:href="#pentagon" transform="translate(179,193.42) rotate(-36)" />
      
        <path d="M 140,140 l 0,-110"
              fill="none" 
              stroke="black" 
              stroke-width="2"/>

        <path d="M 140,140 l-65,89"
              fill="none" 
              stroke="black" 
              stroke-width="2"/>

        <path d="M 140,140 l 65,89"
              fill="none" 
              stroke="black" 
              stroke-width="2"/>

        <path d="M 140,140 l 65,89"
              fill="none" 
              stroke="black" 
              stroke-width="2"/>

        <path d="M 140,140 l -105,-34"
              fill="none" 
              stroke="black" 
              stroke-width="2"/>

        <path d="M 140,140 l 105,-34"
              fill="none" 
              stroke="black" 
              stroke-width="2"/>
    </g>
</svg>